<svg width="1129" height="556" viewBox="0 0 1129 556" fill="none" xmlns="http://www.w3.org/2000/svg">
<path d="M794.167 182.579L790.941 366.782L776.895 465.948L745.888 465.656L735.412 465.552L685.634 465.074L681.436 404.606L675.467 193.408L794.167 182.579Z" fill="#D5D6DA"/>
<path d="M921.343 467.025H897.809L830.338 466.454L831.309 382.955L833.621 195.274L913.227 212.396L918.527 382.955L921.343 467.025Z" fill="#D5D6DA"/>
<path d="M669.392 317.564V464.63L627.172 464.141L542.676 463.18L536.632 292.883L669.392 317.564Z" fill="#D5D6DA"/>
<path d="M580.249 463.611L545.912 463.235L512.412 462.867L497.187 462.701L498.045 367.8L500.158 132.808L572.909 158.595L577.753 367.8L580.249 463.611Z" fill="#D5D6DA"/>
<path d="M652.235 195.274L652.228 195.848L650.109 464.406L646.524 464.362L627.172 464.124L614.795 463.974L594.496 463.727L595.924 346.366L597.561 210.87L652.235 195.274Z" fill="#D5D6DA"/>
<path d="M883.497 254.361L875.273 253.31L874.824 238.814L883.497 238.285V254.361Z" fill="white"/>
<path d="M857.302 227.928L849.078 226.876L848.628 212.381L857.302 211.851V227.928Z" fill="white"/>
<path d="M766.43 319.847L758.207 318.601L757.757 301.428L766.43 300.8V319.847Z" fill="white"/>
<path d="M528.941 189.04L520.717 187.794L520.268 170.621L528.941 169.993V189.04Z" fill="white"/>
<path d="M640.916 233.106L632.692 231.86L632.243 214.687L640.916 214.06V233.106Z" fill="white"/>
<path d="M697.566 272.727L689.342 271.481L688.893 254.308L697.566 253.679V272.727Z" fill="white"/>
<path d="M565.989 556C834.919 556 1052.93 532.406 1052.93 503.301C1052.93 474.196 834.919 450.602 565.989 450.602C297.058 450.602 79.0462 474.196 79.0462 503.301C79.0462 532.406 297.058 556 565.989 556Z" fill="#EAEAEA"/>
<path d="M996.213 74.8438C996.213 74.8438 986.61 53.2307 962.31 55.9389C938.01 58.6471 940.903 80.3118 929.331 78.2807C917.76 76.2495 901.56 78.2807 898.088 91.8215C894.617 105.362 878.995 97.9149 878.417 109.424C877.838 120.934 896.353 129.058 917.76 118.903C939.167 108.747 949.582 126.792 979.667 123.525C1009.75 120.257 1013.48 116.194 1031.29 118.226C1049.1 120.257 1048.67 105.989 1040.57 96.5103C1032.47 87.0311 999.685 87.9339 996.213 74.8438Z" fill="#EAEAEA"/>
<path d="M583.541 19.7537C583.541 19.7537 573.63 -2.55281 548.551 0.242343C523.471 3.0375 526.457 25.3969 514.515 23.3007C502.572 21.2045 485.853 23.3007 482.27 37.2753C478.687 51.2499 462.564 43.5639 461.967 55.4423C461.37 67.3206 480.478 75.7055 502.572 65.2244C524.666 54.7433 535.414 73.3666 566.465 69.9941C597.515 66.6217 601.362 62.4293 619.741 64.5255C638.12 66.6217 637.684 51.8965 629.323 42.1137C620.963 32.3316 587.125 33.2635 583.541 19.7537Z" fill="#EAEAEA"/>
<path d="M693.388 91.0706C693.388 91.0706 685.987 78.2743 667.261 79.8772C648.535 81.4807 650.764 94.3074 641.847 93.1054C632.93 91.9028 620.446 93.1054 617.77 101.122C615.095 109.139 603.057 104.73 602.611 111.544C602.165 118.359 616.433 123.169 632.929 117.156C649.426 111.143 657.452 121.827 680.636 119.892C703.821 117.958 706.693 115.552 720.416 116.755C734.14 117.958 733.814 109.51 727.572 103.898C721.33 98.2863 696.063 98.821 693.388 91.0706Z" fill="#EAEAEA"/>
<path d="M180.608 133.16C176.562 139.742 173.012 140.554 170.117 139.14C167.222 137.727 166.079 134.623 170.126 128.04C177.497 116.049 186.301 112.813 186.301 112.813C186.301 112.813 188.088 120.993 180.608 133.16Z" fill="#D5D6DA"/>
<path d="M278.269 285.264L276.834 285.885C276.727 285.688 265.799 265.91 240.161 242.069C216.504 220.072 175.126 190.017 112.34 171.758L112.834 170.408C175.966 188.767 217.573 219.002 241.36 241.133C267.152 265.126 278.16 285.065 278.269 285.264Z" fill="#D5D6DA"/>
<path d="M181.756 198.974L180.163 198.93C181.952 147.364 135.443 110.685 134.973 110.321L136.019 109.249C136.494 109.618 183.569 146.722 181.756 198.974Z" fill="#D5D6DA"/>
<path d="M147.887 190.164C133.991 197.567 119.33 196.96 119.162 196.952L119.248 195.534C119.436 195.543 138.211 196.302 153.034 185.158L154.062 186.244C152.057 187.751 149.979 189.049 147.887 190.164Z" fill="#D5D6DA"/>
<path d="M106.867 165.446C118.008 167.41 120.803 170.333 120.163 173.22C119.523 176.105 115.69 177.861 104.548 175.897C84.2541 172.321 75.605 165.366 75.605 165.366C75.605 165.366 86.2772 161.817 106.867 165.446Z" fill="#D5D6DA"/>
<path d="M120.188 191.055C131.474 189.933 135.128 191.97 135.494 194.893C135.86 197.817 132.799 200.521 121.512 201.643C100.952 203.686 90.3531 199.38 90.3531 199.38C90.3531 199.38 99.3277 193.128 120.188 191.055Z" fill="#D5D6DA"/>
<path d="M148.854 163.285C154.71 168.68 154.528 171.943 152.156 173.988C149.783 176.033 146.119 176.087 140.263 170.692C129.597 160.865 128.738 152.411 128.738 152.411C128.738 152.411 138.033 153.314 148.854 163.285Z" fill="#D5D6DA"/>
<path d="M135.591 102.773C143.528 110.012 143.976 113.832 141.615 115.889C139.255 117.945 134.98 117.459 127.042 110.219C112.583 97.0317 109.869 86.9351 109.869 86.9351C109.869 86.9351 120.92 89.3932 135.591 102.773Z" fill="#D5D6DA"/>
<path d="M312.043 382.082C312.043 382.082 202.569 184.059 143.401 212.555C84.2325 241.051 249.743 330.76 279.563 389.305L312.043 382.082Z" fill="#D5D6DA"/>
<path d="M255.787 351.846C255.787 351.846 102.539 178.863 40.0768 219.807C-22.3847 260.751 177.798 314.283 220.234 365.971L255.787 351.846Z" fill="#EAEAEA"/>
<path d="M235.977 359.903C207.399 323.732 162.636 293.494 130.119 274.497C94.8647 253.903 66.0248 241.726 65.7373 241.604L66.5823 240.006C66.8705 240.127 95.837 252.357 131.206 273.019C163.868 292.1 208.84 322.486 237.597 358.885L235.977 359.903Z" fill="white"/>
<path d="M271.785 450.37C246.866 449.945 273.032 472.467 243.219 473.19C205.975 470.272 190.699 454.78 185.388 447.217C182.629 443.288 179.386 439.644 175.626 436.456C164.211 426.781 161.052 429.477 125.569 435.092C95.4656 439.843 91.935 416.212 79.1572 399.105C78.9271 398.792 78.6889 398.482 78.4514 398.173C73.5209 391.84 67.1906 386.518 57.5678 384.054C47.3597 381.447 36.9257 377.456 27.7915 372.471C27.033 372.061 26.2826 371.64 25.5397 371.209C7.43152 360.766 -4.77325 346.391 1.80342 331.521C1.95701 331.169 2.12213 330.816 2.2994 330.467C3.53422 328.007 5.28934 325.533 7.62095 323.066C31.9343 297.363 56.5786 306.505 85.0234 310.465C100.751 312.651 123.188 294.814 145.23 286.334C145.544 286.212 145.863 286.093 146.178 285.975C163.676 279.458 180.86 279.113 194.159 299.672C194.159 299.676 194.163 299.676 194.163 299.68C194.433 300.097 194.704 300.511 194.97 300.917C224.69 346.194 239.401 329.895 281.249 338.282C289.032 339.847 296.04 341.576 300.669 345.266C343.822 379.653 314.856 427.228 271.785 450.37Z" fill="#D5D6DA"/>
<path d="M275.392 406.172L276.887 404.45C276.036 403.862 189.507 345.476 1.91237 330.437L1.69316 332.607C188.584 347.589 274.545 405.587 275.392 406.172Z" fill="white"/>
<path d="M163.313 334.58C189.577 316.167 195.114 300.643 195.337 299.992L193 299.356C192.947 299.509 187.394 314.926 161.801 332.869L163.313 334.58Z" fill="white"/>
<path d="M157.274 357.771C165.051 347.246 165.566 331.445 158.765 312.078C153.672 297.575 146.194 285.995 146.119 285.88L144.005 286.971C144.298 287.422 173.115 332.373 155.233 356.575L157.274 357.771Z" fill="white"/>
<path d="M108.107 351.065C111.22 349.039 112.921 347.704 112.998 347.642L111.368 346.021C111.013 346.305 75.1617 374.396 25.6574 370.128L25.4227 372.294C65.3123 375.734 96.5082 358.611 108.107 351.065Z" fill="white"/>
<path d="M79.9975 399.873C92.1562 389.286 96.2241 378.228 97.4961 370.817C98.8805 362.749 97.3797 357.242 97.3161 357.011L94.9446 357.538C95.0035 357.75 100.552 378.932 78.2898 398.316L79.9975 399.873Z" fill="white"/>
<path d="M36.3013 289.869C28.5344 286.968 27.2583 283.906 28.5337 281.193C29.8091 278.479 33.1536 277.142 40.9204 280.043C55.0691 285.327 59.5976 292.794 59.5976 292.794C59.5976 292.794 50.6563 295.229 36.3013 289.869Z" fill="#D5D6DA"/>
<path d="M255.111 496.989L232.249 496.859C218.556 498.374 206.672 486.491 206.672 471.281V105.279C206.672 90.1355 218.457 78.2736 232.1 79.6849H260.378C272.332 80.921 443.78 111.721 443.78 124.99V450.198C443.781 463.403 267 495.674 255.111 496.989Z" fill="#364154"/>
<path d="M451.115 475.775L260.527 496.859C246.833 498.374 234.95 486.491 234.95 471.281V105.279C234.95 90.1355 246.735 78.2736 260.378 79.6849L450.965 99.3964C462.919 100.633 472.059 111.721 472.059 124.99V450.198C472.059 463.403 463.005 474.46 451.115 475.775Z" fill="#364154"/>
<path d="M460.595 130.91V425.126C460.595 437.075 452.599 447.079 442.095 448.269L346.478 459.103L273.757 467.343C261.661 468.713 251.162 457.963 251.162 444.201V113.075C251.162 99.3722 261.572 88.6429 273.623 89.9173L403.553 103.685L441.966 107.753C451.069 108.718 458.325 116.313 460.149 126.088C460.444 127.647 460.595 129.261 460.595 130.91Z" fill="#EAEAEA"/>
<path d="M447.663 199.794V419.052C447.663 427.956 440.85 435.412 431.898 436.299L350.421 444.373L288.454 450.514C278.147 451.534 269.201 443.523 269.201 433.267V186.503C269.201 176.292 278.071 168.296 288.341 169.246L399.057 179.506L431.79 182.537C439.547 183.256 445.729 188.917 447.284 196.201C447.534 197.363 447.663 198.565 447.663 199.794Z" fill="#B8C1C9"/>
<path d="M258.2 497.199C253.289 497.199 248.492 495.506 244.484 492.319C238.367 487.454 234.714 479.59 234.714 471.281V105.279C234.714 97.0088 238.34 89.166 244.412 84.2989C249.027 80.5986 254.706 78.8856 260.405 79.4745L260.351 79.8954C254.789 79.3188 249.239 80.9965 244.725 84.6153C238.752 89.4032 235.185 97.1281 235.185 105.279V471.281C235.185 479.47 238.778 487.217 244.795 492.002C249.34 495.616 254.917 497.267 260.498 496.649L260.556 497.07C259.769 497.157 258.983 497.199 258.2 497.199Z" fill="#131F2D"/>
<path d="M326.475 446.745L317.292 447.655C319.924 415.775 329.282 386.417 343.138 363.361C354.285 344.811 368.984 329.32 386.826 317.316C417.267 296.837 446.454 293.278 447.662 293.154V300.994C447.385 301.024 420.055 303.938 391.339 323.378C374.523 334.763 360.656 349.459 350.126 367.057C336.901 389.159 329.013 416.005 326.475 446.745Z" fill="#EAEAEA"/>
<path d="M374.992 330.35C374.72 329.981 347.605 293.407 335.71 284.21C316.793 269.584 269.671 272.936 269.2 272.972V265.637C271.257 265.483 319.503 262.072 340.993 278.688C353.728 288.535 380.601 324.778 381.739 326.317L374.992 330.35Z" fill="#EAEAEA"/>
<path d="M401.025 259.797L393.709 262.926L416.453 305.906L423.769 302.777L401.025 259.797Z" fill="#EAEAEA"/>
<path d="M269.2 367.782V360.492L346.307 357.569L346.648 364.847L269.2 367.782Z" fill="#EAEAEA"/>
<path d="M407.4 438.726L399.229 439.536L399.486 312.551H407.588L407.4 438.726Z" fill="#EAEAEA"/>
<path d="M403.317 397.113L329.904 399.676L330.218 406.954L403.632 404.391L403.317 397.113Z" fill="#EAEAEA"/>
<path d="M300.347 268.926H292.245V363.11H300.347V268.926Z" fill="#EAEAEA"/>
<path d="M277.901 249.31C272.581 249.31 269.511 249.321 269.2 249.31V241.908C269.921 241.934 341.885 244.279 380.677 224.96C392.051 219.295 398.426 210.25 399.624 198.075C400.543 188.752 398.003 181.157 397.978 181.081L405.725 178.949C405.849 179.313 408.751 187.994 407.695 198.717C406.265 213.242 398.279 224.52 384.602 231.332C367.406 239.896 342.702 245.502 311.176 247.994C297.441 249.08 285.527 249.31 277.901 249.31Z" fill="#EAEAEA"/>
<path d="M340.133 242.147L332.034 241.983L333.659 173.446L342.139 174.231L340.133 242.147Z" fill="#EAEAEA"/>
<path d="M346.004 287.119L338.103 279.17L447.663 240.774V252.013L346.004 287.119Z" fill="#EAEAEA"/>
<path d="M412 172.593C398.303 173.329 391.594 182.618 390.656 194.942C389.717 207.142 404.353 224.928 411.581 232.906C413.597 235.151 417.392 235.151 419.428 232.941C426.436 225.306 440.332 208.669 440.332 196.775C440.332 184.432 429.01 171.676 412 172.593ZM413.736 209.19C405.83 208.902 399.94 203.836 399.94 196.721C399.94 189.606 403.274 184.503 414.634 182.761C424.358 181.27 429.01 189.229 429.629 196.326C430.368 204.932 424.578 209.603 413.736 209.19Z" fill="#131F2D"/>
<path d="M408.261 256.329L386.629 225.89L395.631 220.658L418.051 252.889L408.261 256.329Z" fill="#EAEAEA"/>
<path d="M360.889 307.871C360.27 307.871 359.659 307.617 359.261 307.136L357.651 305.187C356.984 304.38 357.171 303.239 358.069 302.639C358.968 302.04 360.236 302.209 360.903 303.015L362.513 304.965C363.18 305.772 362.993 306.913 362.095 307.513C361.732 307.755 361.309 307.871 360.889 307.871Z" fill="#00A3FE"/>
<path d="M356.137 302.118C355.518 302.118 354.907 301.863 354.509 301.382L351.366 297.578C350.7 296.77 350.887 295.63 351.785 295.03C352.684 294.43 353.952 294.599 354.619 295.406L357.761 299.21C358.428 300.018 358.241 301.159 357.342 301.759C356.98 302.001 356.556 302.118 356.137 302.118ZM349.852 294.51C349.233 294.51 348.622 294.255 348.224 293.774L345.082 289.97C344.415 289.162 344.602 288.021 345.501 287.422C346.399 286.823 347.667 286.991 348.335 287.798L351.477 291.602C352.144 292.41 351.956 293.551 351.058 294.151C350.695 294.393 350.272 294.51 349.852 294.51Z" fill="#00A3FE"/>
<path d="M343.568 286.901C342.949 286.901 342.338 286.647 341.941 286.166L340.33 284.217C339.953 283.759 339.834 283.17 340.011 282.623C340.187 282.077 340.638 281.636 341.229 281.431L343.75 280.559C344.794 280.199 345.966 280.667 346.368 281.606C346.77 282.544 346.249 283.598 345.205 283.959L345.173 283.97L345.193 283.994C345.859 284.802 345.673 285.942 344.775 286.542C344.412 286.784 343.988 286.901 343.568 286.901Z" fill="#00A3FE"/>
<path d="M349.745 282.259C348.931 282.259 348.163 281.815 347.853 281.091C347.451 280.153 347.973 279.099 349.017 278.739L354.285 276.917C355.328 276.557 356.501 277.024 356.902 277.963C357.304 278.902 356.783 279.955 355.739 280.317L350.471 282.138C350.232 282.22 349.987 282.259 349.745 282.259ZM360.279 278.616C359.465 278.616 358.698 278.172 358.388 277.448C357.986 276.51 358.507 275.456 359.552 275.095L364.82 273.274C365.863 272.913 367.035 273.382 367.437 274.32C367.839 275.259 367.318 276.313 366.274 276.673L361.006 278.495C360.767 278.577 360.521 278.616 360.279 278.616ZM370.814 274.974C370 274.974 369.232 274.53 368.923 273.806C368.521 272.867 369.042 271.814 370.086 271.453L375.354 269.632C376.397 269.271 377.57 269.739 377.971 270.678C378.373 271.617 377.852 272.67 376.808 273.031L371.54 274.852C371.301 274.935 371.055 274.974 370.814 274.974ZM381.349 271.331C380.535 271.331 379.767 270.887 379.457 270.164C379.055 269.225 379.576 268.172 380.62 267.81L385.888 265.989C386.933 265.628 388.104 266.097 388.506 267.035C388.908 267.973 388.387 269.027 387.343 269.388L382.075 271.21C381.836 271.292 381.59 271.331 381.349 271.331ZM391.883 267.689C391.069 267.689 390.301 267.245 389.992 266.521C389.59 265.583 390.111 264.529 391.155 264.168L396.421 262.347C397.467 261.986 398.637 262.454 399.039 263.392C399.441 264.331 398.92 265.384 397.876 265.746L392.609 267.567C392.37 267.65 392.125 267.689 391.883 267.689ZM402.417 264.046C401.604 264.046 400.836 263.602 400.526 262.878C400.125 261.94 400.645 260.886 401.69 260.525L406.957 258.703C408 258.342 409.173 258.811 409.574 259.75C409.976 260.688 409.455 261.742 408.411 262.103L403.144 263.924C402.905 264.007 402.659 264.046 402.417 264.046Z" fill="#00A3FE"/>
<path d="M412.952 260.404C412.138 260.404 411.37 259.96 411.061 259.236C410.659 258.297 411.18 257.244 412.224 256.882L412.438 256.809L412.315 256.635C411.716 255.786 411.996 254.661 412.941 254.122C413.886 253.584 415.137 253.836 415.736 254.685L417.182 256.736C417.507 257.197 417.585 257.764 417.394 258.283C417.204 258.801 416.765 259.215 416.198 259.41L413.677 260.282C413.44 260.365 413.193 260.404 412.952 260.404Z" fill="#00A3FE"/>
<path d="M410.772 252.866C410.101 252.866 409.445 252.566 409.059 252.02L405.803 247.404C405.204 246.555 405.485 245.429 406.429 244.891C407.374 244.352 408.625 244.604 409.224 245.453L412.48 250.069C413.079 250.918 412.799 252.044 411.854 252.582C411.518 252.774 411.143 252.866 410.772 252.866ZM404.261 243.634C403.59 243.634 402.934 243.335 402.548 242.788L399.293 238.172C398.694 237.323 398.974 236.198 399.919 235.659C400.863 235.121 402.115 235.373 402.714 236.222L405.97 240.838C406.568 241.687 406.288 242.812 405.344 243.351C405.007 243.543 404.631 243.634 404.261 243.634Z" fill="#00A3FE"/>
<path d="M397.75 234.402C397.079 234.402 396.423 234.103 396.037 233.556L394.591 231.506C393.992 230.656 394.272 229.531 395.217 228.993C396.162 228.454 397.413 228.705 398.012 229.555L399.458 231.606C400.057 232.455 399.777 233.58 398.832 234.119C398.496 234.311 398.12 234.402 397.75 234.402Z" fill="#00A3FE"/>
<path d="M389.267 224.461C389.267 222.751 390.81 221.364 392.713 221.364C394.615 221.364 396.158 222.751 396.158 224.461C396.158 226.172 394.615 227.559 392.713 227.559C390.81 227.559 389.267 226.172 389.267 224.461Z" fill="#131F2D"/>
<path d="M362.187 310.786C362.187 309.398 363.439 308.272 364.983 308.272C366.527 308.272 367.78 309.397 367.78 310.786C367.78 312.175 366.527 313.3 364.983 313.3C363.439 313.3 362.187 312.175 362.187 310.786Z" fill="#131F2D"/>
<path d="M744.554 259.843C744.518 259.843 744.484 259.843 744.447 259.842C739.489 259.814 734.861 257.812 731.75 254.35C719.977 241.367 703.032 221.332 689.174 199.625C672.394 173.342 664.54 151.509 665.832 134.734C667.361 114.666 673.805 97.7095 684.465 85.6967C696.221 72.4508 712.708 65.1688 733.469 64.0532C745.644 63.398 757.338 64.9285 768.23 68.6015C778.372 72.022 787.591 77.209 795.633 84.019C812.862 98.6098 823.148 119.734 823.148 140.526C823.148 156.895 814.845 177.783 798.467 202.61C784.871 223.221 768.568 242.187 757.287 254.468C754.133 257.887 749.497 259.842 744.554 259.843ZM733.536 65.0526C713.104 66.1506 696.887 73.3061 685.337 86.3214C674.818 98.1742 668.457 114.939 666.943 134.803C665.668 151.377 673.472 173.019 690.139 199.127C703.959 220.775 720.866 240.763 732.615 253.719C735.517 256.948 739.83 258.814 744.452 258.841C744.486 258.841 744.519 258.841 744.553 258.841C749.164 258.841 753.487 257.018 756.428 253.829C767.683 241.576 783.948 222.655 797.508 202.099C813.782 177.429 822.033 156.713 822.033 140.526C822.033 120.004 811.878 99.153 794.867 84.7483C786.934 78.0302 777.84 72.9131 767.838 69.5395C757.094 65.9158 745.555 64.406 733.536 65.0526ZM742.977 180.108C741.655 180.108 740.31 180.082 738.941 180.029C726.672 179.584 715.527 175.433 707.559 168.342C699.477 161.15 695.026 151.211 695.026 140.356C695.026 114.631 709.419 100.953 741.697 96.0062C752.707 94.3194 762.336 96.2982 770.317 101.889C780.944 109.331 788.112 123.233 789.495 139.076C790.585 151.753 787.278 161.772 779.667 168.857C771.728 176.248 759.097 180.108 742.977 180.108ZM749.072 96.4265C746.75 96.4265 744.354 96.6157 741.883 96.9941C724.913 99.5952 713.081 104.642 705.714 112.424C699.272 119.23 696.14 128.367 696.14 140.357C696.14 150.942 700.473 160.628 708.342 167.63C716.113 174.545 726.995 178.593 738.987 179.029H738.988C756.713 179.703 770.502 175.946 778.865 168.161C786.245 161.292 789.448 151.532 788.384 139.154C787.026 123.587 780.015 109.952 769.632 102.679C763.693 98.5191 756.8 96.4265 749.072 96.4265Z" fill="#131F2D"/>
<path d="M745.221 64.5532C702.153 66.8678 681.058 96.0494 678.107 134.769C675.156 173.095 721.176 228.974 743.902 254.036C750.243 261.091 762.173 261.091 768.576 254.149C790.613 230.16 834.31 177.893 834.31 140.527C834.309 101.75 798.711 61.6741 745.221 64.5532ZM750.683 179.529C725.821 178.626 707.301 162.709 707.301 140.357C707.301 118.005 717.785 101.975 753.508 96.5007C784.084 91.8161 798.712 116.82 800.658 139.115C802.981 166.152 784.773 180.827 750.683 179.529Z" fill="#00A3FE"/>
<path d="M423.319 370.303C425.225 364.445 427.548 360.957 427.548 360.957C427.548 360.957 441.922 361.031 442.618 362.166C444.225 364.784 446.089 370.588 447.638 373.233C448.31 374.38 450.273 378.376 449.09 379.125C448.061 379.776 444.819 377.262 443.436 375.9C442.249 384.374 436.278 396.259 437.325 378.338C437.314 378.337 437.302 378.337 437.291 378.336C436.998 380.139 435.369 390.171 432.835 388.874C430.598 387.73 431.433 380.504 431.879 377.533C431.848 377.526 431.818 377.519 431.787 377.512C431.041 380.496 429.031 387.658 427.299 385.955C425.124 383.816 425.826 375.876 425.826 375.876C425.826 375.876 424.679 386.003 421.832 383.811C419.89 382.316 422.248 374.231 422.918 371.386C423.016 370.973 423.154 370.617 423.319 370.303Z" fill="#FF7955"/>
<path d="M537.293 317.554C549.458 319.617 573.503 323.845 591.478 312.551C601.626 306.175 609.717 297.271 610.054 297.051L596.764 280.076L603.409 288.563L596.783 280.063C589.863 284.549 578.413 298.233 562.371 294.711C555.088 293.11 546.612 292.121 537.839 280.498L514.688 287.756C521.967 300.793 519.845 315.233 537.293 317.554Z" fill="#00A3FE"/>
<path d="M578.606 299.298C578.606 299.298 586.163 289.255 593.845 286.162C601.527 283.069 606.398 285.635 606.398 285.635L614.641 282.698C614.641 282.698 615.823 310.598 594.399 305.683C592.707 305.294 578.606 299.298 578.606 299.298Z" fill="#FF7955"/>
<path d="M613.414 268.155L605.54 308.597C605.024 311.243 602.162 312.989 599.211 312.455L578.113 308.642C575.276 308.129 573.412 305.696 573.908 303.151L581.668 263.296C582.172 260.707 584.93 258.969 587.834 259.41L609.045 262.636C611.962 263.08 613.92 265.554 613.414 268.155Z" fill="#131F2D"/>
<path d="M610.116 267.622C610.081 266.516 609.047 265.643 607.807 265.674C606.567 265.705 605.589 266.627 605.624 267.734C605.658 268.841 606.692 269.713 607.932 269.682C609.172 269.651 610.15 268.729 610.116 267.622Z" fill="white"/>
<path d="M618.27 283.648C618.27 283.648 621.046 278.215 615.471 275.99C608.366 273.154 596.469 275.698 600.942 277.55C604.909 279.192 611.169 280.319 611.169 280.319C611.169 280.319 595.208 277.649 595.719 280.796C596.231 283.942 609.99 286.072 609.99 286.072C609.99 286.072 594.177 284.78 595.738 287.612C597.301 290.445 609.78 292.448 609.78 292.448C609.78 292.448 594.401 290.443 596.303 293.695C598.204 296.948 606.392 296.547 609.904 297.084C613.223 297.592 614.665 295.847 614.984 292.955C614.984 292.955 617.178 290.242 616.852 288.305C616.726 287.563 617.609 286.979 617.778 286.472C618.101 285.503 618.27 283.648 618.27 283.648Z" fill="#FF7955"/>
<path d="M455.5 361.774C455.584 364.699 475.412 365.861 499.936 365.179C524.459 364.496 544.056 361.47 543.972 358.544C543.888 355.619 524.155 353.901 499.631 354.584C475.108 355.267 455.416 358.848 455.5 361.774Z" fill="#131F2D"/>
<path d="M461.503 278.948C461.503 278.948 465.839 263.613 497.835 263.458C543.976 263.234 539.703 301.06 543.972 358.545C543.972 358.545 515.998 348.125 455.5 361.774C455.5 361.774 451.483 302.379 461.503 278.948Z" fill="#00A3FE"/>
<path d="M449.693 276.749L470.59 287.064C470.59 287.064 517.344 296.267 529.49 294.481C541.637 292.696 543.973 288.267 543.973 288.267C543.973 288.267 531.035 267.3 509.046 264.111C506.98 263.81 504.838 263.588 502.616 263.459C498.886 263.244 495.151 263.289 491.501 263.656C463.631 266.458 449.693 276.749 449.693 276.749Z" fill="#00A3FE"/>
<path d="M493.436 259.948L495.852 252.993L496.555 250.969L500.688 239.064L501.232 250.906L501.557 258.014L501.66 260.264C501.73 261.791 502.774 262.112 504.043 263.44C504.558 263.977 507.85 267.238 504.114 268.711C499.459 270.546 490.757 267.767 487.449 264.128C487.475 264.122 492.655 262.196 493.436 259.948Z" fill="#FF7955"/>
<path d="M443.52 366.821C445.443 347.925 449.856 320.91 459.957 299.515C462.298 294.557 463.273 292.696 465.098 289.989C466.567 287.811 463.937 283.023 459.787 280.74C455.894 278.599 449.83 278.949 448.872 280.009C447.24 281.813 445.499 285.268 442.791 290.755C433.379 309.819 427.74 334.446 425.456 366.196L443.52 366.821Z" fill="#FF7955"/>
<path d="M511.324 234.594C511.324 234.594 512.167 237.476 511.324 241.088C510.481 244.701 506.363 235.82 506.363 235.82L511.324 234.594Z" fill="#131F2D"/>
<path d="M511.814 242.131C510.786 235.145 504.689 230.099 498.196 230.859C491.702 231.62 487.272 237.899 488.3 244.885C489.329 251.871 495.426 256.917 501.919 256.156C508.412 255.395 512.842 249.116 511.814 242.131Z" fill="#FF7955"/>
<path d="M500.681 242.973C500.743 242.939 500.786 242.88 500.793 242.81C500.804 242.692 500.706 242.588 500.574 242.578C500.496 242.573 498.705 242.287 497.803 243.985C497.746 244.093 497.792 244.22 497.911 244.273C498.03 244.326 498.15 244.269 498.234 244.177C499.071 243.255 500.469 243.002 500.534 243.006C500.587 243.01 500.639 242.997 500.681 242.973Z" fill="#080435"/>
<path d="M499.639 245.724C499.79 246.218 500.238 246.539 500.64 246.441C501.041 246.343 501.245 245.864 501.093 245.371C500.943 244.877 500.495 244.556 500.093 244.653C499.691 244.751 499.488 245.231 499.639 245.724Z" fill="#080435"/>
<path d="M509.574 242.336C509.629 242.328 509.679 242.29 509.704 242.229C509.746 242.127 509.704 241.997 509.61 241.939C509.555 241.905 508.321 240.985 507.16 242.187C507.087 242.263 507.083 242.395 507.155 242.487C507.227 242.579 507.332 242.572 507.42 242.52C508.307 241.995 509.409 242.283 509.455 242.311C509.494 242.335 509.535 242.343 509.574 242.336Z" fill="#080435"/>
<path d="M507.382 244.534C507.311 245.042 507.588 245.491 508.001 245.537C508.414 245.583 508.806 245.209 508.878 244.701C508.949 244.193 508.672 243.744 508.259 243.698C507.846 243.652 507.454 244.026 507.382 244.534Z" fill="#080435"/>
<path d="M480.402 241.571C480.402 241.571 484.365 249.203 489.986 249.762C489.986 249.762 485.441 243.946 495.021 240.402C495.021 240.402 486.225 239.168 480.402 241.571Z" fill="#131F2D"/>
<path d="M488.326 245.783C489.529 246.465 491.057 246.242 491.741 245.283C492.424 244.324 492.004 242.994 490.801 242.312C489.599 241.629 488.071 241.853 487.387 242.812C486.704 243.77 487.124 245.1 488.326 245.783Z" fill="#FF7955"/>
<path d="M495.021 240.403C495.021 240.403 494.253 246.807 495.714 248.017C497.175 249.228 506.822 249.749 511.324 248.197C511.399 252.31 508.15 255.941 503.603 256.622C502.099 256.848 500.543 256.849 498.997 256.608C495.845 256.117 492.781 254.954 491.482 252.345C491.087 251.552 492.237 246.669 492.237 246.669C492.237 246.669 492.669 243.803 490.801 242.312C490.801 242.312 492.958 240.583 495.021 240.403Z" fill="#131F2D"/>
<path d="M495.021 240.403C495.021 240.403 494.228 235.924 498.164 235.605C502.098 235.285 506.587 234.695 508.13 235.605C509.673 236.514 511.518 240.086 511.518 240.086C511.518 240.086 513.676 233.371 509.721 230.499C505.765 227.626 493.156 223.846 485.108 228.848C477.059 233.85 480.403 241.572 480.403 241.572C480.403 241.572 486.15 240.008 495.021 240.403Z" fill="#131F2D"/>
<path d="M489.564 228.848C489.564 228.848 483.631 224.477 484.973 221.244C486.315 218.011 492.594 219.035 495.021 219.541C497.448 220.046 497.859 223.913 495.91 226.408C493.96 228.903 489.564 228.848 489.564 228.848Z" fill="#131F2D"/>
<path d="M498.699 502.739C501.545 502.6 504.187 503.916 505.585 506.133C506.242 507.175 507.198 508.122 508.591 508.64C512.873 510.233 525.282 511.671 520.645 515.301C517.985 517.385 505.446 516.039 501.907 516.038C498.366 516.038 495.042 517.415 492.412 515.301C490.836 514.034 490.976 510.026 491.431 506.637C491.759 504.193 494.231 502.382 496.968 502.695C497.383 502.742 497.802 502.766 498.214 502.756C498.379 502.752 498.54 502.747 498.699 502.739Z" fill="#131F2D"/>
<path d="M454.967 501.399C454.967 501.399 455.125 507.046 459.408 508.639C463.691 510.232 476.099 511.67 471.462 515.3C468.802 517.383 456.263 516.037 452.723 516.037C449.182 516.037 445.859 517.413 443.228 515.299C440.334 512.973 443.228 501.399 443.228 501.399C443.228 501.399 446.283 502.818 449.03 502.755C452.99 502.663 454.967 501.399 454.967 501.399Z" fill="#131F2D"/>
<path d="M530.697 359.352C532.633 359.537 534.166 360.885 534.4 362.609C534.866 366.047 534.942 373.308 532.633 388.375C529.241 410.51 516.416 491.284 514.286 502.05C513.525 505.901 512.652 508.271 506.396 509.083L498.087 508.937C491.322 509.816 488.717 503.337 488.669 499.192L494.109 374.764L472.486 360.044C472.486 360.044 488.669 358.199 506.964 358.212C517.298 358.22 526.311 358.935 530.697 359.352Z" fill="#657285"/>
<path d="M510.351 363.481L462.692 500.075C460.697 505.793 454.927 509.711 448.355 509.811L445.49 509.855C438.727 509.958 433.556 504.378 434.789 498.307L460.861 369.958C461.239 368.433 462.208 361.69 463.858 361.266C472.797 358.965 511.228 357.832 510.351 363.481Z" fill="#657285"/>
<path d="M489.048 424.535L488.29 424.309L498.54 396.509C500.907 390.09 505.777 384.731 512.251 381.422L512.646 382.046C506.343 385.267 501.603 390.484 499.298 396.736L489.048 424.535Z" fill="#020202"/>
<path d="M477.263 266.932C477.263 266.932 472.289 262.833 478.27 261.387C480.634 260.815 484.16 255.606 487.449 256.056C490.738 256.506 492.677 273.027 505.874 278.136C505.874 278.136 509.123 280.662 503.834 280.549C498.545 280.437 477.263 266.932 477.263 266.932Z" fill="#657285"/>
<path d="M505.874 278.136C505.874 278.136 512.479 272.34 511.326 266.932C510.173 261.524 513.531 256.898 515.168 259.342C516.805 261.786 518.696 260.267 519.072 263.33C519.448 266.393 514.348 281.448 509.721 281.448C505.094 281.448 505.874 278.136 505.874 278.136Z" fill="#657285"/>
<path d="M504.38 279.276C504.38 279.276 500.112 280.988 501.694 285.044C503.277 289.099 501.064 290.736 501.064 290.736C501.064 290.736 506.238 290.961 506.863 286.617C507.487 282.272 504.38 279.276 504.38 279.276Z" fill="#657285"/>
<path d="M506.805 279.276C506.805 279.276 512.225 280.924 512.458 284.07C512.692 287.216 509.585 287.965 508.494 286.093C507.403 284.22 505.136 280.553 505.136 280.553L506.805 279.276Z" fill="#657285"/>
<path d="M491.483 252.345C491.483 252.345 491.521 256.749 495.021 259.222C498.521 261.696 496.205 263.85 499.286 267.361C502.367 270.871 498.7 270.951 504.155 273.505C509.61 276.058 513.724 273.744 512.65 269.834C511.577 265.925 516.317 266.962 514.081 262.015C511.846 257.068 510.219 260.1 512.105 254.834C513.992 249.568 511.324 248.197 511.324 248.197C511.324 248.197 508.309 248.381 505.874 248.77C503.439 249.159 501.25 248.475 499.551 248.961C497.851 249.447 491.483 252.345 491.483 252.345Z" fill="#131F2D"/>
<path d="M508.948 250.507C508.948 250.507 505.252 251.399 501.213 251.05C501.213 251.05 501.806 254.387 505.892 253.722C508.269 253.336 508.948 250.507 508.948 250.507Z" fill="white"/>
<path d="M425.456 359.378C425.456 359.378 437.912 360.569 444.365 359.378C444.365 359.378 445.202 362.337 443.855 363.688C443.855 363.688 428.931 364.696 425.456 363.688C425.456 363.688 422.886 361.468 425.456 359.378Z" fill="#131F2D"/>
<path d="M433.549 366.141H433.318C430.867 366.141 428.862 364.339 428.862 362.135V361.38C428.862 359.177 430.867 357.375 433.318 357.375H433.549C436 357.375 438.005 359.177 438.005 361.38V362.135C438.005 364.338 436 366.141 433.549 366.141Z" fill="#131F2D"/>
<path d="M449.693 276.749C449.693 276.749 439.135 282.323 428.862 318.936C418.59 355.549 426.309 356.213 426.309 356.213C426.309 356.213 440.166 356.451 444.622 355.033C449.078 353.615 451.462 320.805 460.349 307.462C469.236 294.119 472.415 273.688 449.693 276.749Z" fill="#00A3FE"/>
<path d="M506.945 302.964C506.945 302.189 507.649 301.561 508.518 301.561C509.387 301.561 510.091 302.189 510.091 302.964C510.091 303.739 509.387 304.368 508.518 304.368C507.649 304.368 506.945 303.739 506.945 302.964Z" fill="#131F2D"/>
<path d="M506.945 320.065C506.945 319.29 507.649 318.662 508.518 318.662C509.387 318.662 510.091 319.29 510.091 320.065C510.091 320.84 509.387 321.469 508.518 321.469C507.649 321.469 506.945 320.841 506.945 320.065Z" fill="#131F2D"/>
<path d="M506.945 340.336C506.945 339.561 507.649 338.933 508.518 338.933C509.387 338.933 510.091 339.561 510.091 340.336C510.091 341.111 509.387 341.739 508.518 341.739C507.649 341.739 506.945 341.112 506.945 340.336Z" fill="#131F2D"/>
<path d="M455.093 320.63L454.314 320.461C457.335 309.015 462.53 298.338 462.585 298.229L463.316 298.519C463.265 298.621 458.097 309.245 455.093 320.63Z" fill="#131F2D"/>
<path d="M540.99 318.684C540.113 305.945 533.019 289.581 532.948 289.417L533.693 289.157C533.767 289.32 540.906 305.788 541.79 318.635L540.99 318.684Z" fill="#131F2D"/>
<path d="M789.431 402.303C789.431 402.303 931.943 181.388 1010.47 219.163C1089 256.938 871.214 347.758 832.446 413.275L789.431 402.303Z" fill="#EAEAEA"/>
<path d="M813.433 408.631C839.291 362.946 884.64 321.688 918.127 295.122C954.434 266.321 984.991 248.115 985.295 247.934L984.041 246.225C983.735 246.406 953.044 264.691 916.62 293.586C882.983 320.27 837.424 361.729 811.403 407.701L813.433 408.631Z" fill="white"/>
<path d="M1072.52 391.348C1038.56 398.31 1044.79 444.57 1005.9 436.366C973.013 429.41 970.218 426.718 958.969 435.327C955.113 438.278 951.8 441.753 949.014 445.554C945.674 450.11 939.2 456.838 929.257 458.509C868.517 468.719 784.304 388.636 847.244 343.41C851.789 340.144 858.448 338.838 865.823 337.723C905.834 331.7 918.527 348.116 949.575 305.335C980.633 262.543 1024.24 323.01 1051.09 320.599C1077.95 318.187 1101.54 310.703 1122.8 336.1C1144.07 361.518 1106.47 384.407 1072.52 391.348Z" fill="#D5D6DA"/>
<g opacity="0.5">
<path d="M867.362 402.086L866.063 400.39C866.893 399.875 951.27 348.785 1127.72 343.323L1127.8 345.382C952.012 350.824 868.189 401.573 867.362 402.086Z" fill="white"/>
<path d="M1027.13 357.852C1024.33 355.795 1022.82 354.455 1022.75 354.393L1024.37 352.938C1024.69 353.223 1056.61 381.412 1103.19 379.687L1103.28 381.743C1065.75 383.133 1037.55 365.516 1027.13 357.852Z" fill="white"/>
<path d="M1050.6 405.238C1039.84 394.677 1036.67 384.049 1035.91 376.993C1035.09 369.313 1036.81 364.184 1036.88 363.969L1039.07 364.576C1039.01 364.774 1032.58 384.512 1052.29 403.847L1050.6 405.238Z" fill="white"/>
</g>
<path d="M990.014 177.349C996.924 172.147 1000.82 172.574 1003.08 175.009C1005.35 177.444 1005.14 180.965 998.226 186.166C985.639 195.641 975.45 195.812 975.45 195.812C975.45 195.812 977.244 186.962 990.014 177.349Z" fill="#D5D6DA"/>
<g opacity="0.6">
<path d="M1058.89 281.649C1068.47 281.485 1071.38 284.173 1071.45 287.548C1071.52 290.924 1068.73 293.709 1059.15 293.873C1041.7 294.171 1033.14 288.204 1033.14 288.204C1033.14 288.204 1041.19 281.952 1058.89 281.649Z" fill="#D5D6DA"/>
</g>
<path d="M927.587 494.945C927.587 494.945 902.442 495.652 899.344 490.597C887.947 472.002 899.793 428.883 913.249 418.094C926.705 407.304 936.66 426.128 936.66 426.128L927.587 494.945Z" fill="#131F2D"/>
<path d="M939.849 432.595C939.849 432.595 935.25 417.412 925.032 422.157C914.814 426.902 915.325 494.669 927.587 494.945C939.849 495.222 944.958 453.945 939.849 432.595Z" fill="#364154"/>
<path d="M936.417 438.325C936.417 438.325 933.623 426.554 927.412 430.233C921.202 433.911 921.512 486.449 928.965 486.664C936.417 486.878 939.522 454.877 936.417 438.325Z" fill="#B8C1C9"/>
<path d="M830.209 515.795C830.209 515.795 796.578 517.814 793.106 511.293C782.084 490.591 771.164 434.27 809.947 415.993C843.51 400.175 852.616 440.21 852.616 440.21L830.209 515.795Z" fill="#131F2D"/>
<path d="M846.477 438.901C846.477 438.901 840.377 420.177 826.82 426.028C813.263 431.88 813.941 515.453 830.209 515.795C846.477 516.137 853.255 465.231 846.477 438.901Z" fill="#364154"/>
<path d="M841.924 445.967C841.924 445.967 838.216 431.451 829.977 435.987C821.738 440.524 822.149 505.316 832.037 505.581C841.924 505.846 846.043 466.381 841.924 445.967Z" fill="#B8C1C9"/>
<path d="M830.156 504.806L829.726 504.094C833.447 502.277 836.503 493.559 837.901 480.773C839.222 468.705 838.868 455.396 836.98 446.039L837.866 445.895C841.586 464.332 839.18 500.399 830.156 504.806Z" fill="#131F2D"/>
<path d="M625.239 442.721C625.239 442.721 623.875 439.118 621.007 435.849L621.008 435.848C621.008 435.848 607.8 415.841 589.947 427.309C572.096 438.777 578.413 500.027 582.258 505.5C586.103 510.974 608.971 508.992 608.971 508.992C625.239 509.286 632.018 465.414 625.239 442.721Z" fill="#131F2D"/>
<path d="M614.996 354.132C614.996 354.132 559.542 374.785 564.296 422.147C564.296 422.147 559.147 422.86 557.166 432.118C555.186 441.377 565.484 484.822 573.01 485.89C580.536 486.958 797.198 492.656 802.743 489.807C808.289 486.959 813.834 480.192 813.438 463.811C813.042 447.43 818.048 413.309 834.035 414.756C847.703 415.993 850.981 456.581 847.704 482.155C846.078 494.836 866.118 476.988 883.546 475.563C900.974 474.139 912.401 476.503 913.196 467.6C913.99 458.697 911.446 420.685 926.524 420.093C940.769 419.533 941.815 445.772 941.815 445.772C943.4 443.992 945.336 423.745 940.979 414.756C936.622 405.766 942.959 369.088 932.661 363.747C922.363 358.405 929.888 303.209 870.871 292.526C811.853 281.843 691.837 285.876 668.468 297.57C645.098 309.263 614.996 354.132 614.996 354.132Z" fill="#00A3FE"/>
<path d="M713.943 415.161H630.857C627.215 415.161 623.791 413.886 621.216 411.572L619.529 410.055C617.124 407.893 613.927 406.701 610.525 406.701H602.903V405.892H610.525C614.167 405.892 617.59 407.167 620.166 409.482L621.852 410.998C624.258 413.161 627.455 414.352 630.857 414.352H713.943C716.077 414.352 718.193 413.864 720.064 412.942L731.306 407.401C733.309 406.414 735.575 405.892 737.86 405.892H748.995V406.701H737.86C735.726 406.701 733.61 407.189 731.739 408.111L720.497 413.652C718.494 414.639 716.227 415.161 713.943 415.161Z" fill="#131F2D"/>
<path d="M831.365 296.41C835.118 296.72 837.723 299.904 836.975 303.225C835.665 309.037 833.886 318.656 833.639 328.848C833.243 345.229 842.749 355.2 812.646 356.98C782.543 358.761 618.224 359.404 619.412 354.419C620.6 349.433 662.131 301.903 674.014 298.58C684.567 295.628 800.93 293.892 831.365 296.41Z" fill="#131F2D"/>
<path d="M592.155 464.287C592.155 469.007 588.298 474.02 582.319 474.02C576.339 474.02 572.482 469.007 572.482 464.287C572.482 459.567 577.329 455.147 583.308 455.147C589.288 455.147 592.155 459.567 592.155 464.287Z" fill="#131F2D"/>
<path d="M782.083 464.287C782.083 469.007 778.226 474.02 772.246 474.02C766.267 474.02 762.41 469.007 762.41 464.287C762.41 459.567 767.257 455.147 773.236 455.147C779.217 455.147 782.083 459.567 782.083 464.287Z" fill="#131F2D"/>
<path d="M557.166 432.119C557.166 432.119 556.11 439.597 572.482 441.556C588.854 443.514 603.113 439.953 607.074 452.06C611.034 464.168 603.113 475.563 629.254 478.768C655.396 481.973 722.23 485.534 726.046 475.919C729.862 466.304 721.94 450.28 738.576 447.431C755.212 444.582 793.237 448.143 802.347 443.514C811.457 438.885 811.853 433.187 806.308 429.27C800.762 425.353 594.002 425.709 582.318 425.709C570.633 425.709 557.164 424.641 557.166 432.119Z" fill="#131F2D"/>
<path d="M630.684 439.552L710.722 439.005C713.42 438.987 715.433 441.232 714.842 443.598L713.016 450.9C712.587 452.619 710.888 453.841 708.929 453.841H632.692C630.788 453.841 629.124 452.687 628.639 451.032L626.664 444.276C625.969 441.9 627.951 439.571 630.684 439.552Z" fill="white"/>
<path d="M896.255 377.805C897.225 380.93 896.089 383.946 893.719 384.54C891.349 385.135 888.64 383.083 887.671 379.957C886.701 376.831 887.837 373.816 890.207 373.222C892.578 372.627 895.285 374.679 896.255 377.805Z" fill="#131F2D"/>
<path d="M929.472 374.436C930.442 377.561 929.306 380.577 926.936 381.171C924.566 381.766 921.858 379.714 920.888 376.589C919.918 373.462 921.054 370.447 923.424 369.852C925.794 369.257 928.502 371.31 929.472 374.436Z" fill="#131F2D"/>
<path d="M917.004 352.945C917.004 352.945 917.214 325.644 900.05 314.486C882.886 303.327 858.064 298.342 853.311 301.666C848.557 304.989 847.765 348.672 851.991 352.944C856.216 357.218 912.57 357.218 917.004 352.945Z" fill="#131F2D"/>
<path d="M864.138 364.637C864.138 364.637 856.414 358.049 860.375 347.01C864.336 335.97 894.835 343.449 898.003 348.969C901.172 354.488 888.695 363.925 880.378 365.527C872.06 367.129 873.842 380.662 867.504 379.949C861.167 379.237 856.135 375.32 859.244 372.827C862.355 370.335 868.099 366.774 864.138 364.637Z" fill="#364154"/>
<path d="M821.425 323.516C821.425 323.516 826.469 306.516 823.667 303.577C820.866 300.639 796.354 298.75 796.354 301.689C796.354 304.627 805.992 306.302 808.527 311.865C811.062 317.43 820.001 328.951 821.425 323.516Z" fill="#364154"/>
<path d="M783.196 392.05L782.367 391.736C784.436 387.324 789.66 381.324 797.895 373.903C804.012 368.39 809.599 364.11 809.654 364.067L810.237 364.684C810.016 364.853 788.032 381.738 783.196 392.05Z" fill="#131F2D"/>
<path d="M585.671 388.647C585.648 388.647 585.623 388.643 585.6 388.635C585.491 388.6 585.434 388.492 585.474 388.393C590.559 375.74 614.398 360.728 614.638 360.578C614.732 360.518 614.864 360.539 614.931 360.625C614.997 360.711 614.973 360.829 614.879 360.888C614.819 360.926 608.819 364.691 602.273 369.961C596.242 374.817 588.5 381.977 585.87 388.522C585.838 388.599 585.757 388.647 585.671 388.647Z" fill="#131F2D"/>
<path d="M601.662 408.257C611.58 401.044 615.366 390.468 610.117 384.635C604.869 378.801 592.574 379.919 582.655 387.132C572.737 394.345 568.951 404.921 574.2 410.755C579.448 416.588 591.743 415.47 601.662 408.257Z" fill="#E3EEEC"/>
<path d="M587.844 413.633C583.383 413.633 579.826 412.134 577.828 409.411C575.612 406.393 575.551 402.117 577.661 397.68C581.805 388.966 593.067 381.877 602.767 381.877C604.317 381.877 605.771 382.057 607.088 382.414C607.199 382.444 607.262 382.549 607.229 382.65C607.196 382.75 607.077 382.808 606.967 382.776C605.69 382.431 604.276 382.255 602.767 382.255C593.22 382.255 582.131 389.242 578.048 397.829C575.994 402.147 576.042 406.293 578.179 409.203C580.097 411.816 583.53 413.255 587.845 413.255C589.703 413.255 591.659 412.991 593.658 412.47C593.768 412.44 593.885 412.498 593.919 412.598C593.951 412.698 593.887 412.803 593.775 412.833C591.737 413.364 589.742 413.633 587.844 413.633Z" fill="#131F2D"/>
<path d="M776.601 408.247C786.519 401.034 790.305 390.458 785.056 384.625C779.808 378.791 767.513 379.909 757.594 387.122C747.676 394.335 743.89 404.911 749.139 410.744C754.387 416.578 766.682 415.46 776.601 408.247Z" fill="#E3EEEC"/>
<path d="M762.786 413.633C758.326 413.633 754.769 412.134 752.77 409.411C750.554 406.393 750.493 402.117 752.603 397.68C756.747 388.966 768.009 381.877 777.709 381.877C779.259 381.877 780.713 382.057 782.031 382.414C782.142 382.444 782.205 382.549 782.172 382.65C782.138 382.75 782.021 382.808 781.91 382.776C780.632 382.431 779.219 382.255 777.709 382.255C768.163 382.255 757.073 389.242 752.99 397.829C750.936 402.147 750.984 406.293 753.121 409.203C755.039 411.816 758.471 413.255 762.786 413.255C764.645 413.255 766.6 412.991 768.6 412.47C768.71 412.44 768.828 412.498 768.861 412.598C768.893 412.698 768.829 412.803 768.717 412.833C766.68 413.364 764.684 413.633 762.786 413.633Z" fill="#131F2D"/>
<path d="M906.729 433.493C906.719 433.493 906.708 433.492 906.698 433.491C906.583 433.475 906.504 433.38 906.521 433.276C908.616 420.658 918.016 414.513 923.433 411.972C925.957 410.789 927.524 408.48 927.524 405.948V391.893C927.524 391.788 927.618 391.704 927.735 391.704C927.851 391.704 927.945 391.788 927.945 391.893V405.948C927.945 408.621 926.291 411.058 923.627 412.307C918.282 414.814 909.005 420.88 906.937 433.332C906.921 433.425 906.831 433.493 906.729 433.493Z" fill="#131F2D"/>
<path d="M906.729 392.082C906.72 392.082 906.712 392.081 906.702 392.08C906.587 392.067 906.505 391.973 906.52 391.869C908.294 379.241 901.762 358.869 901.696 358.664C901.663 358.565 901.727 358.459 901.839 358.43C901.952 358.398 902.067 358.459 902.099 358.558C902.165 358.763 908.722 379.21 906.937 391.917C906.924 392.012 906.833 392.082 906.729 392.082Z" fill="#131F2D"/>
<path d="M672.372 405.651C672.372 406.918 670.02 407.945 667.12 407.945C664.22 407.945 661.869 406.918 661.869 405.651C661.869 404.385 664.22 403.358 667.12 403.358C670.021 403.358 672.372 404.385 672.372 405.651Z" fill="#E3EEEC"/>
<path d="M630.132 542.918C630.132 542.918 616.725 530.522 621.338 523.462C625.951 516.402 633.736 538.628 633.736 538.628C633.736 538.628 629.7 512.347 638.061 511.89C646.423 511.434 638.061 538.628 638.061 538.628C638.061 538.628 641.161 532.287 644.188 531.895C647.215 531.503 646.35 537.272 640.944 542.918H630.132Z" fill="#EAEAEA"/>
<path d="M631.089 543.227C631.051 543.192 627.214 539.626 624.076 535.123C619.793 528.978 618.773 524.101 621.044 520.626C621.89 519.33 622.91 518.731 624.069 518.85C626.416 519.09 629.059 522.309 632.147 528.691C633.072 530.603 633.891 532.513 634.535 534.096C633.795 527.203 632.94 513.483 637.134 508.881C638.038 507.889 639.139 507.352 640.406 507.283C641.64 507.215 642.658 507.613 643.427 508.466C647.203 512.657 643.806 527.57 641.939 534.551C643.329 532.509 645.301 530.238 647.315 529.977C648.268 529.855 649.024 530.173 649.452 530.875C650.683 532.894 649.01 538.058 644.08 543.207L643.333 542.629C648.181 537.565 649.5 532.796 648.588 531.3C648.359 530.925 647.998 530.784 647.456 530.853C644.861 531.189 641.835 536.292 640.887 538.23L639.962 537.934C639.98 537.874 641.816 531.872 643.046 525.305C644.655 516.718 644.522 511.088 642.662 509.023C642.097 508.397 641.381 508.119 640.466 508.166C639.471 508.221 638.63 508.638 637.897 509.442C632.599 515.255 635.985 537.764 636.019 537.991L635.061 538.185C633.311 533.188 627.904 520.133 623.959 519.731C623.21 519.655 622.535 520.093 621.894 521.074C616.909 528.703 631.647 542.471 631.796 542.609L631.089 543.227Z" fill="#364154"/>
<path d="M400.263 533.616C400.263 533.616 390.979 525.032 394.174 520.144C397.368 515.255 402.759 530.646 402.759 530.646C402.759 530.646 399.963 512.447 405.753 512.131C411.543 511.815 405.753 530.646 405.753 530.646C405.753 530.646 407.899 526.255 409.996 525.983C412.092 525.711 411.494 529.706 407.75 533.616H400.263Z" fill="#EAEAEA"/>
<path d="M400.926 533.829C400.899 533.805 398.243 531.336 396.069 528.217C393.103 523.963 392.397 520.586 393.969 518.18C394.555 517.282 395.262 516.867 396.064 516.95C397.689 517.117 399.519 519.345 401.658 523.765C402.298 525.088 402.866 526.411 403.311 527.507C402.799 522.734 402.207 513.234 405.112 510.047C405.738 509.361 406.5 508.988 407.377 508.94C408.234 508.898 408.937 509.17 409.469 509.76C412.084 512.662 409.732 522.989 408.439 527.821C409.401 526.408 410.767 524.835 412.162 524.654C412.819 524.565 413.345 524.789 413.641 525.276C414.494 526.674 413.335 530.25 409.921 533.815L409.404 533.415C412.762 529.909 413.675 526.606 413.043 525.57C412.884 525.31 412.637 525.212 412.259 525.261C410.462 525.494 408.366 529.027 407.711 530.369L407.069 530.164C407.12 529.999 412.097 513.65 408.939 510.145C408.548 509.711 408.05 509.515 407.419 509.552C406.729 509.589 406.148 509.879 405.64 510.436C401.971 514.461 404.315 530.047 404.339 530.204L403.676 530.338C402.464 526.878 398.72 517.838 395.988 517.559C395.469 517.503 395.001 517.811 394.557 518.49C391.107 523.77 401.311 533.305 401.415 533.401L400.926 533.829Z" fill="#364154"/>
<path d="M127.931 485.842C127.931 485.842 116.715 475.472 120.575 469.567C124.434 463.661 130.946 482.254 130.946 482.254C130.946 482.254 127.569 460.269 134.564 459.887C141.558 459.505 134.564 482.254 134.564 482.254C134.564 482.254 137.156 476.949 139.689 476.621C142.222 476.293 141.498 481.119 136.976 485.843H127.931V485.842Z" fill="#EAEAEA"/>
<path d="M128.731 486.1C128.203 485.612 115.843 474.058 120.328 467.194C121.036 466.11 121.886 465.61 122.859 465.709C124.822 465.909 127.033 468.602 129.616 473.941C130.39 475.539 131.076 477.138 131.614 478.462C130.995 472.696 130.28 461.219 133.788 457.369C134.544 456.54 135.465 456.09 136.525 456.032C137.56 455.974 138.409 456.309 139.051 457.022C142.21 460.528 139.369 473.004 137.807 478.843C138.97 477.134 140.619 475.235 142.304 475.016C143.101 474.91 143.734 475.18 144.092 475.767C145.122 477.456 143.722 481.776 139.598 486.084L138.973 485.6C143.029 481.364 144.132 477.375 143.369 476.124C143.178 475.81 142.875 475.693 142.422 475.75C140.253 476.031 137.72 480.299 136.926 481.921L136.152 481.673C136.167 481.623 137.703 476.602 138.732 471.109C140.077 463.926 139.966 459.216 138.409 457.489C137.937 456.965 137.338 456.729 136.573 456.773C135.74 456.818 135.037 457.167 134.424 457.84C129.992 462.703 132.823 481.532 132.853 481.722L132.051 481.883C130.587 477.704 126.065 466.783 122.764 466.446C122.137 466.384 121.572 466.75 121.036 467.57C116.868 473.948 129.195 485.468 129.32 485.584L128.731 486.1Z" fill="#364154"/>
<path d="M185.951 526.404C185.951 526.404 175.81 517.028 179.299 511.688C182.788 506.348 188.677 523.159 188.677 523.159C188.677 523.159 185.624 503.281 191.948 502.935C198.273 502.59 191.948 523.159 191.948 523.159C191.948 523.159 194.293 518.363 196.583 518.067C198.872 517.77 198.218 522.134 194.129 526.405L185.951 526.404Z" fill="#EAEAEA"/>
<path d="M186.675 526.638C186.197 526.196 175.022 515.749 179.076 509.543C179.717 508.562 180.489 508.111 181.365 508.2C183.14 508.381 185.139 510.816 187.475 515.643C188.175 517.089 188.795 518.534 189.281 519.731C188.722 514.517 188.075 504.14 191.247 500.659C191.931 499.909 192.764 499.502 193.722 499.45C194.658 499.4 195.425 499.7 196.006 500.345C198.863 503.516 196.293 514.796 194.881 520.075C195.933 518.53 197.424 516.812 198.947 516.615C199.665 516.522 200.24 516.763 200.564 517.294C201.495 518.821 200.229 522.728 196.5 526.622L195.936 526.185C199.603 522.355 200.6 518.748 199.911 517.617C199.738 517.333 199.468 517.225 199.054 517.279C197.091 517.533 194.802 521.392 194.086 522.858L193.386 522.634C193.4 522.589 194.788 518.049 195.719 513.082C196.935 506.587 196.834 502.328 195.428 500.767C195.001 500.293 194.456 500.079 193.767 500.119C193.014 500.16 192.378 500.475 191.824 501.083C187.817 505.479 190.377 522.505 190.404 522.677L189.679 522.823C188.355 519.044 184.265 509.169 181.281 508.865C180.713 508.803 180.204 509.14 179.719 509.882C175.949 515.651 187.096 526.065 187.21 526.169L186.675 526.638Z" fill="#364154"/>
<path d="M348.56 503.577C348.56 503.577 334.537 490.612 339.362 483.228C344.187 475.844 352.329 499.09 352.329 499.09C352.329 499.09 348.107 471.603 356.852 471.125C365.598 470.648 356.852 499.09 356.852 499.09C356.852 499.09 360.094 492.458 363.261 492.048C366.427 491.637 365.523 497.671 359.868 503.577H348.56Z" fill="#EAEAEA"/>
<path d="M349.561 503.9C349.52 503.863 345.508 500.134 342.225 495.423C337.746 488.997 336.679 483.896 339.053 480.262C339.939 478.906 341.006 478.282 342.218 478.405C344.673 478.655 347.437 482.022 350.667 488.696C351.634 490.696 352.492 492.694 353.164 494.35C352.39 487.14 351.496 472.791 355.883 467.978C356.828 466.941 357.979 466.378 359.304 466.305C360.597 466.238 361.66 466.651 362.464 467.543C366.413 471.927 362.861 487.525 360.907 494.825C362.362 492.69 364.424 490.315 366.531 490.041C367.523 489.911 368.318 490.245 368.765 490.98C370.052 493.091 368.303 498.493 363.146 503.879L362.365 503.274C367.436 497.977 368.815 492.99 367.861 491.425C367.621 491.033 367.244 490.886 366.677 490.958C363.965 491.31 360.798 496.647 359.806 498.674L358.838 498.364C358.857 498.301 360.778 492.023 362.064 485.156C363.746 476.174 363.607 470.286 361.662 468.127C361.072 467.472 360.321 467.178 359.366 467.231C358.324 467.287 357.445 467.724 356.679 468.565C351.138 474.645 354.678 498.187 354.715 498.423L353.713 498.626C351.882 493.401 346.228 479.745 342.101 479.324C341.316 479.244 340.611 479.705 339.941 480.73C334.73 488.705 350.142 503.108 350.299 503.253L349.561 503.9Z" fill="#364154"/>
<path d="M974.396 481.076C974.396 481.076 964.255 471.7 967.744 466.36C971.233 461.02 977.122 477.832 977.122 477.832C977.122 477.832 974.069 457.953 980.393 457.607C986.718 457.262 980.393 477.832 980.393 477.832C980.393 477.832 982.738 473.035 985.028 472.739C987.317 472.442 986.663 476.806 982.574 481.077L974.396 481.076Z" fill="#EAEAEA"/>
<path d="M975.12 481.31C974.642 480.868 963.466 470.421 967.521 464.215C968.162 463.234 968.936 462.785 969.81 462.872C971.585 463.053 973.584 465.487 975.92 470.315C976.62 471.761 977.24 473.206 977.726 474.403C977.167 469.189 976.52 458.812 979.692 455.331C980.376 454.581 981.208 454.174 982.167 454.122C983.104 454.072 983.87 454.372 984.452 455.017C987.308 458.188 984.738 469.468 983.326 474.748C984.378 473.203 985.869 471.485 987.392 471.287C988.113 471.194 988.685 471.435 989.009 471.966C989.94 473.493 988.674 477.4 984.946 481.294L984.381 480.857C988.048 477.027 989.045 473.42 988.355 472.288C988.182 472.004 987.912 471.895 987.498 471.95C985.536 472.204 983.246 476.064 982.53 477.53L981.83 477.306C981.844 477.261 983.232 472.721 984.163 467.753C985.379 461.258 985.279 457 983.872 455.438C983.445 454.964 982.906 454.751 982.211 454.79C981.458 454.831 980.822 455.147 980.268 455.755C976.261 460.151 978.822 477.177 978.847 477.349L978.123 477.495C976.799 473.717 972.71 463.841 969.725 463.537C969.155 463.476 968.648 463.812 968.164 464.554C964.395 470.321 975.541 480.737 975.654 480.842L975.12 481.31Z" fill="#364154"/>
<path d="M874.827 525.197C874.827 525.197 864.686 515.82 868.176 510.481C871.665 505.14 877.554 521.952 877.554 521.952C877.554 521.952 874.501 502.073 880.825 501.728C887.149 501.382 880.825 521.952 880.825 521.952C880.825 521.952 883.169 517.156 885.459 516.859C887.749 516.562 887.095 520.926 883.006 525.197L874.827 525.197Z" fill="#EAEAEA"/>
<path d="M875.551 525.43C875.074 524.988 863.897 514.541 867.953 508.335C868.594 507.355 869.365 506.905 870.242 506.993C872.018 507.174 874.016 509.608 876.352 514.436C877.051 515.882 877.671 517.327 878.158 518.524C877.598 513.31 876.951 502.933 880.124 499.452C880.807 498.702 881.64 498.296 882.598 498.243C883.537 498.192 884.302 498.493 884.883 499.138C887.739 502.307 885.17 513.588 883.757 518.867C884.809 517.323 886.301 515.605 887.824 515.407C888.544 515.315 889.116 515.556 889.439 516.087C890.37 517.614 889.106 521.52 885.376 525.415L884.812 524.978C888.479 521.147 889.477 517.54 888.787 516.409C888.614 516.125 888.344 516.016 887.931 516.071C885.968 516.325 883.679 520.185 882.962 521.651L882.262 521.426C882.276 521.381 883.665 516.841 884.596 511.874C885.812 505.379 885.711 501.121 884.304 499.559C883.878 499.086 883.336 498.874 882.644 498.911C881.891 498.953 881.255 499.268 880.701 499.876C876.694 504.272 879.254 521.298 879.28 521.47L878.556 521.616C877.231 517.837 873.143 507.963 870.158 507.658C869.595 507.596 869.08 507.933 868.596 508.675C864.826 514.442 875.973 524.858 876.086 524.963L875.551 525.43Z" fill="#364154"/>
<path d="M394.245 95.7011C394.245 66.3778 365.277 46.1626 333.004 46.1626C286.266 46.1626 270.215 69.9333 270.215 99.2566C270.215 128.58 307.253 149.347 339.526 149.347C371.799 149.347 394.245 125.024 394.245 95.7011Z" fill="#00A3FE"/>
<path d="M404.46 142.767C404.46 142.767 384.031 139.901 382.572 121.447L366.521 132.107C366.521 132.107 374.182 149.064 404.46 142.767Z" fill="#00A3FE"/>
<path d="M340.453 155.483C324.326 155.483 306.79 150.215 293.545 141.39C278.935 131.655 270.889 118.791 270.889 105.166C270.889 89.166 275.578 76.4835 284.824 67.4684C295.457 57.1011 311.979 51.8447 333.93 51.8447C350.055 51.8447 365.286 56.7556 376.818 65.6727C388.816 74.9506 395.424 87.7128 395.424 101.61C395.424 113.367 391.874 124.442 385.155 133.646C390.002 146.149 405.271 148.429 405.425 148.451L406.715 148.633L405.443 148.897C396.226 150.815 383.256 151.701 373.677 145.089C364.31 151.891 352.827 155.483 340.453 155.483ZM333.93 52.2991C312.126 52.2991 295.729 57.5068 285.195 67.7768C276.038 76.7049 271.394 89.2846 271.394 105.166C271.394 118.644 279.367 131.379 293.845 141.025C307.006 149.795 324.43 155.03 340.453 155.03C352.778 155.03 364.21 151.431 373.514 144.625L373.67 144.51L373.829 144.621C382.884 150.975 395.13 150.42 404.2 148.681C400.478 147.868 388.757 144.495 384.637 133.689L384.596 133.584L384.665 133.491C391.373 124.343 394.919 113.319 394.919 101.611C394.919 87.8484 388.374 75.2079 376.489 66.0182C365.048 57.1711 349.934 52.2991 333.93 52.2991Z" fill="#131F2D"/>
<path d="M334.819 97.5452C334.785 97.5452 334.751 97.544 334.716 97.5416C334.13 97.5032 333.663 97.1455 333.527 96.6315L333.519 96.5896L332.431 87.7533C331.903 85.7611 331.689 85.2654 329.522 84.6644L321.164 83.3054C320.586 83.1472 320.221 82.7275 320.19 82.2256C320.159 81.7238 320.47 81.27 320.983 81.0693L341.682 72.974C342.693 72.578 343.815 72.7617 344.607 73.4521C345.4 74.1437 345.639 75.1468 345.23 76.0696L336.04 96.7958C335.835 97.2587 335.363 97.5452 334.819 97.5452ZM334.274 96.491C334.35 96.7416 334.58 96.845 334.772 96.8578C334.967 96.8712 335.22 96.7945 335.331 96.5427L344.521 75.8166C344.871 75.0276 344.52 74.3323 344.076 73.9448C343.632 73.5579 342.85 73.2654 341.987 73.6036L321.287 81.6989C320.956 81.8284 320.947 82.1058 320.952 82.188C320.957 82.2701 321.001 82.545 321.345 82.6405L329.703 83.9995C332.291 84.7154 332.615 85.4874 333.178 87.6158L333.187 87.6572L334.274 96.491Z" fill="white"/>
<path d="M305.983 105.584V106.097C305.983 106.165 305.966 106.232 305.933 106.293L301.989 113.663C301.905 113.819 301.73 113.918 301.537 113.918H300.727C300.354 113.918 300.111 113.564 300.279 113.264L304.03 106.537V106.51H299.92C299.642 106.51 299.417 106.308 299.417 106.058V105.583C299.417 105.334 299.642 105.131 299.92 105.131H305.481C305.758 105.133 305.983 105.335 305.983 105.584Z" fill="white"/>
<path d="M310.775 109.295C310.775 108.741 310.759 108.251 310.739 107.806C310.727 107.549 310.954 107.335 311.24 107.335H311.831C312.092 107.335 312.309 107.515 312.331 107.75L312.382 108.309H312.427C312.772 107.795 313.433 107.187 314.68 107.187C315.642 107.187 316.393 107.674 316.709 108.404H316.739C316.994 108.039 317.294 107.768 317.625 107.579C318.046 107.322 318.511 107.187 319.128 107.187C320.33 107.187 321.562 107.93 321.562 110.039V113.467C321.562 113.717 321.337 113.919 321.06 113.919H320.261C319.983 113.919 319.758 113.717 319.758 113.467V110.283C319.758 109.188 319.338 108.539 318.451 108.539C317.82 108.539 317.355 108.944 317.159 109.418C317.099 109.567 317.069 109.783 317.069 109.972V113.467C317.069 113.717 316.844 113.919 316.567 113.919H315.768C315.491 113.919 315.266 113.717 315.266 113.467V110.107C315.266 109.188 314.861 108.539 314.005 108.539C313.314 108.539 312.848 109.025 312.668 109.471C312.607 109.647 312.578 109.836 312.578 110.025V113.467C312.578 113.717 312.353 113.919 312.076 113.919H311.276C310.999 113.919 310.774 113.717 310.774 113.467L310.775 109.295Z" fill="white"/>
<path d="M325.483 105.497C325.483 105.984 325.077 106.389 324.431 106.389C323.815 106.389 323.409 105.984 323.409 105.497C323.409 104.983 323.83 104.591 324.446 104.591C325.077 104.591 325.468 104.983 325.483 105.497ZM323.514 113.467V107.787C323.514 107.538 323.739 107.336 324.016 107.336H324.86C325.138 107.336 325.362 107.538 325.362 107.787V113.467C325.362 113.716 325.138 113.919 324.86 113.919H324.016C323.74 113.919 323.514 113.716 323.514 113.467Z" fill="white"/>
<path d="M327.36 109.296C327.36 108.741 327.344 108.251 327.324 107.806C327.312 107.549 327.54 107.336 327.825 107.336H328.445C328.706 107.336 328.924 107.516 328.946 107.75L328.998 108.322H329.043C329.374 107.809 330.17 107.187 331.387 107.187C332.664 107.187 333.986 107.93 333.986 110.012V113.467C333.986 113.717 333.761 113.919 333.484 113.919H332.64C332.362 113.919 332.138 113.717 332.138 113.467V110.201C332.138 109.255 331.747 108.539 330.741 108.539C330.004 108.539 329.494 109.012 329.298 109.512C329.238 109.647 329.208 109.85 329.208 110.039V113.467C329.208 113.717 328.983 113.919 328.706 113.919H327.862C327.585 113.919 327.36 113.717 327.36 113.467V109.296Z" fill="white"/>
<path d="M342.504 111.946C342.504 112.514 342.52 113.011 342.54 113.448C342.552 113.705 342.324 113.919 342.039 113.919H341.419C341.158 113.919 340.94 113.738 340.919 113.504L340.867 112.932H340.821C340.506 113.392 339.785 114.068 338.463 114.068C337.141 114.068 335.924 113.351 335.924 111.202V107.788C335.924 107.538 336.149 107.336 336.426 107.336H337.27C337.547 107.336 337.772 107.538 337.772 107.788V110.918C337.772 112.013 338.162 112.716 339.139 112.716C339.89 112.716 340.371 112.256 340.551 111.824C340.627 111.689 340.656 111.5 340.656 111.31V107.788C340.656 107.538 340.881 107.336 341.158 107.336H342.002C342.279 107.336 342.504 107.538 342.504 107.788V111.946Z" fill="white"/>
<path d="M346.62 106.242V106.884C346.62 107.133 346.845 107.336 347.122 107.336H347.876C348.153 107.336 348.378 107.538 348.378 107.787V108.128C348.378 108.377 348.153 108.58 347.876 108.58H347.122C346.845 108.58 346.62 108.782 346.62 109.032V111.486C346.62 112.297 346.86 112.703 347.567 112.703C347.648 112.703 347.72 112.702 347.785 112.7C348.064 112.691 348.294 112.891 348.3 113.141L348.309 113.54C348.315 113.763 348.14 113.953 347.896 113.995C347.64 114.039 347.324 114.068 346.981 114.068C346.29 114.068 345.734 113.865 345.388 113.527C344.982 113.149 344.802 112.54 344.802 111.675V109.032C344.802 108.782 344.577 108.58 344.3 108.58H344.267C343.99 108.58 343.765 108.378 343.765 108.128V107.787C343.765 107.538 343.99 107.336 344.267 107.336H344.3C344.577 107.336 344.802 107.133 344.802 106.884V106.448C344.802 106.245 344.951 106.067 345.168 106.013L345.982 105.807C346.302 105.726 346.62 105.943 346.62 106.242Z" fill="white"/>
<path d="M351.592 111.094C351.241 111.094 350.997 111.411 351.121 111.707C351.437 112.462 352.287 112.797 353.245 112.797C353.857 112.797 354.339 112.735 354.772 112.635C355.049 112.571 355.327 112.726 355.387 112.977L355.453 113.253C355.506 113.476 355.367 113.705 355.125 113.775C354.547 113.942 353.825 114.054 352.99 114.054C350.616 114.054 349.219 112.742 349.219 110.728C349.219 108.903 350.451 107.187 352.794 107.187C355.168 107.187 355.949 108.944 355.949 110.39C355.949 110.488 355.946 110.578 355.941 110.662C355.927 110.903 355.708 111.094 355.44 111.094H351.592ZM353.646 109.931C353.975 109.931 354.216 109.651 354.132 109.364C353.982 108.845 353.578 108.322 352.688 108.322C351.868 108.322 351.389 108.803 351.157 109.325C351.027 109.616 351.281 109.931 351.629 109.931H353.646Z" fill="white"/>
<path d="M357.199 112.902C357.28 112.639 357.596 112.506 357.877 112.606C358.282 112.75 358.784 112.864 359.224 112.864C360.035 112.864 360.396 112.554 360.396 112.121C360.396 111.675 360.095 111.459 359.194 111.161C357.767 110.729 357.181 110.026 357.181 109.241C357.181 108.079 358.248 107.187 359.945 107.187C360.528 107.187 361.056 107.277 361.47 107.409C361.717 107.488 361.849 107.731 361.775 107.958L361.688 108.23C361.607 108.481 361.308 108.627 361.035 108.538C360.735 108.441 360.363 108.363 359.976 108.363C359.315 108.363 358.954 108.66 358.954 109.066C358.954 109.485 359.3 109.674 360.231 109.985C361.568 110.404 362.169 111.013 362.183 111.986C362.183 113.189 361.147 114.054 359.209 114.054C358.53 114.054 357.904 113.943 357.405 113.77C357.163 113.685 357.03 113.451 357.1 113.225L357.199 112.902Z" fill="white"/>
</svg>
